<?xml version="1.0" standalone="no"?>
<!DOCTYPE svg PUBLIC "-//W3C//DTD SVG 20010904//EN"
 "http://www.w3.org/TR/2001/REC-SVG-20010904/DTD/svg10.dtd">
<svg version="1.0" xmlns="http://www.w3.org/2000/svg"
 width="363.000000pt" height="363.000000pt" viewBox="0 0 363.000000 363.000000"
 preserveAspectRatio="xMidYMid meet">
<metadata>
Created by potrace 1.11, written by Peter Selinger 2001-2013
</metadata>
<g transform="translate(0.000000,363.000000) scale(0.100000,-0.100000)"
fill="#000000" stroke="none">
<path d="M1738 3625 c-2 -1 -36 -5 -75 -9 -402 -34 -811 -262 -1056 -587 -47
-63 -72 -85 -135 -122 -161 -94 -286 -227 -370 -393 -32 -64 -67 -161 -76
-210 -3 -16 -8 -40 -12 -54 -11 -50 -11 -233 1 -308 73 -446 454 -774 916
-786 l94 -2 3 -119 3 -118 -32 -31 c-52 -50 -73 -108 -66 -183 7 -67 23 -101
72 -146 99 -93 268 -69 339 46 54 88 44 207 -24 274 -28 28 -29 31 -31 144 -1
63 1 120 4 126 5 7 73 11 202 11 l195 1 1 -242 c0 -133 0 -300 0 -370 l0 -128
-31 -32 c-103 -103 -80 -279 46 -353 87 -51 204 -35 274 38 87 89 85 230 -4
319 l-25 26 -1 344 c-1 189 -1 356 -1 371 l1 27 200 1 200 0 1 -72 c3 -152 0
-171 -30 -203 -42 -44 -63 -92 -66 -151 -9 -164 160 -280 313 -214 64 28 101
67 122 130 30 87 8 181 -54 239 -25 24 -26 28 -26 148 l0 123 85 1 c47 1 88 2
93 3 16 5 107 17 112 16 3 -1 19 4 35 10 17 7 38 13 47 15 38 8 194 87 251
129 124 88 246 233 309 367 115 244 115 546 2 795 -79 175 -246 350 -417 437
-29 15 -62 45 -97 92 -247 327 -647 553 -1047 590 -70 7 -241 13 -245 10z
m199 -261 c-3 -3 -12 -4 -19 -1 -8 3 -5 6 6 6 11 1 17 -2 13 -5z m734 -321
c13 -16 12 -17 -3 -4 -17 13 -22 21 -14 21 2 0 10 -8 17 -17z m-1721 -16 c0
-2 -15 -16 -32 -33 l-33 -29 29 33 c28 30 36 37 36 29z m1397 -449 c-3 -7 -5
-2 -5 12 0 14 2 19 5 13 2 -7 2 -19 0 -25z m-1867 19 c0 -2 -10 -12 -22 -23
l-23 -19 19 23 c18 21 26 27 26 19z m757 -29 c-3 -8 -6 -5 -6 6 -1 11 2 17 5
13 3 -3 4 -12 1 -19z m820 -15 c-3 -10 -5 -4 -5 12 0 17 2 24 5 18 2 -7 2 -21
0 -30z m290 -25 c-3 -7 -5 -2 -5 12 0 14 2 19 5 13 2 -7 2 -19 0 -25z m-67
-182 c0 -2 -8 -10 -17 -17 -16 -13 -17 -12 -4 4 13 16 21 21 21 13z m1097
-273 c-2 -16 -4 -3 -4 27 0 30 2 43 4 28 2 -16 2 -40 0 -55z m-1000 -285 c-3
-7 -5 -2 -5 12 0 14 2 19 5 13 2 -7 2 -19 0 -25z m-1912 -178 c10 -11 16 -20
13 -20 -3 0 -13 9 -23 20 -10 11 -16 20 -13 20 3 0 13 -9 23 -20z m2073 -197
c-103 -2 -274 -2 -380 0 -106 1 -22 2 187 2 209 0 296 -1 193 -2z"/>
</g>
</svg>
